<svg width="26" height="26" viewBox="0 0 26 26" fill="none" xmlns="http://www.w3.org/2000/svg">
<path d="M16.4397 11.0888H10.3071C10.0688 11.0888 9.87549 10.9118 9.87549 10.6934C9.87549 10.475 10.0687 10.2979 10.3071 10.2979H16.4394C16.6778 10.2979 16.8711 10.4749 16.8711 10.6934C16.8711 10.9118 16.6778 11.0888 16.4396 11.0888H16.4397Z" fill="#58D365" fill-opacity="0.7"/>
<path d="M16.4397 13.9615H10.3071C10.0688 13.9615 9.87549 13.7845 9.87549 13.566C9.87549 13.3477 10.0687 13.1706 10.3071 13.1706H16.4394C16.6778 13.1706 16.8711 13.3476 16.8711 13.566C16.8711 13.7845 16.6778 13.9615 16.4396 13.9615H16.4397Z" fill="#58D365" fill-opacity="0.7"/>
<path d="M10.3705 16.6495C10.1321 16.6495 9.93884 16.4725 9.93884 16.254C9.93884 16.0357 10.132 15.8586 10.3705 15.8586C12.6801 15.8586 14.6313 14.7554 14.6313 13.4496C14.6313 12.1437 12.68 11.0404 10.3705 11.0404C10.1321 11.0404 9.93884 10.8634 9.93884 10.6449C9.93884 10.4265 10.132 10.2495 10.3705 10.2495C13.2439 10.2495 15.4947 11.6551 15.4947 13.4495C15.4947 15.2438 13.2439 16.6495 10.3705 16.6495V16.6495Z" fill="#58D365" fill-opacity="0.7"/>
<path d="M14.9823 21.301C14.8673 21.301 14.7527 21.2592 14.6676 21.1765L10.1097 16.7336C9.94639 16.5744 9.95488 16.3242 10.1286 16.1746C10.3023 16.0252 10.5753 16.033 10.7387 16.1919L15.2966 20.6348C15.4599 20.794 15.4514 21.0442 15.2777 21.1938C15.1944 21.2654 15.0881 21.301 14.9821 21.301L14.9823 21.301Z" fill="#58D365" fill-opacity="0.7"/>
<path d="M1.53194 13.2112H3.61574V24.3248C3.61574 24.7138 3.92137 25.0194 4.31033 25.0194H22.3699C22.7589 25.0194 23.0645 24.7138 23.0645 24.3248V13.2112H25.1483C25.7595 13.2112 26.0652 12.461 25.6483 12.0166L13.8401 0.208439C13.5622 -0.0694797 13.1178 -0.0694797 12.8676 0.208439L1.03213 12.0166C0.615253 12.461 0.920881 13.2112 1.53214 13.2112H1.53194ZM13.3401 1.68089L23.4813 11.822H22.37C21.981 11.822 21.6754 12.1277 21.6754 12.5166V23.6302H5.00503V12.5166C5.00503 12.1277 4.6994 11.822 4.31043 11.822H3.19917L13.3401 1.68089Z" fill="#58D365" fill-opacity="0.7"/>
</svg>
