<svg width="27" height="25" viewBox="0 0 27 25" fill="none" xmlns="http://www.w3.org/2000/svg">
<path d="M21.9381 0.900391C22.4369 0.900391 22.9091 1.11848 23.2506 1.48828L23.3893 1.65527L23.3903 1.65625L25.9508 5.23047L26.0641 5.38867H26.0074C26.0108 5.41816 26.0105 5.44945 25.9996 5.48242V22.9795C25.9996 23.8673 25.2711 24.6287 24.3512 24.6289H2.46057C1.54153 24.6289 0.812134 23.8983 0.812134 22.9795V5.46777C0.812134 5.38002 0.854584 5.29791 0.88147 5.24414L0.885376 5.2373L0.890259 5.23047L3.44885 1.65918C3.76661 1.18266 4.33592 0.900391 4.90295 0.900391H21.9381ZM1.60706 22.9795C1.60706 23.4328 1.98181 23.833 2.46057 23.833H24.3805C24.8338 23.833 25.234 23.4583 25.234 22.9795V5.86523H17.0944V10.8584C17.0943 11.103 16.9565 11.3416 16.7526 11.4775L16.7448 11.4824L16.736 11.4863C16.5126 11.5819 16.2685 11.6219 16.0221 11.4814V11.4805L13.4205 10.0781L10.817 11.4824C10.7107 11.5505 10.5763 11.5839 10.4723 11.584C10.3385 11.584 10.198 11.5506 10.0885 11.4775C9.88673 11.3431 9.74675 11.1352 9.7467 10.8584V5.86523H1.60706V22.9795ZM10.5426 5.54102V10.7803L13.3727 9.22168L13.4205 9.19531L13.4684 9.22168L16.2985 10.751V5.50977L15.2213 1.69531H11.65L10.5426 5.54102ZM17.0104 5.06934H24.8707L22.7506 2.10059V2.09961C22.5592 1.85605 22.261 1.69547 21.9391 1.69531H16.0553L17.0104 5.06934ZM4.90295 1.69531C4.57406 1.69531 4.2791 1.83171 4.09143 2.09961L4.09045 2.10059L1.97034 5.06934H9.86096L10.816 1.69531H4.90295Z" fill="#DBA362" stroke="#DBA362" stroke-width="0.2"/>
<path d="M15.9032 5.07001V5.86493H10.9384V5.07001H15.9032Z" fill="#DBA362" stroke="#DBA362" stroke-width="0.2"/>
</svg>
