<svg width="26" height="24" viewBox="0 0 26 24" fill="none" xmlns="http://www.w3.org/2000/svg">
<path d="M16.6192 5.33914C17.2298 5.33914 17.8155 5.09663 18.2473 4.66486C18.6791 4.23305 18.9216 3.64732 18.9216 3.03676C18.9216 2.42602 18.6791 1.84049 18.2473 1.40866C17.8155 0.97686 17.2298 0.734375 16.6192 0.734375C16.0085 0.734375 15.4229 0.976889 14.9911 1.40866C14.5593 1.84046 14.3166 2.42597 14.3166 3.03676C14.3166 3.64732 14.5593 4.23303 14.9911 4.66486C15.4229 5.09666 16.0084 5.33914 16.6192 5.33914ZM16.6192 2.04994C16.8808 2.04994 17.1318 2.15387 17.3169 2.33903C17.5019 2.52395 17.6058 2.77496 17.6058 3.03675C17.6058 3.29831 17.5019 3.54932 17.3169 3.73448C17.1318 3.9194 16.8808 4.02357 16.6192 4.02357C16.3574 4.02357 16.1064 3.9194 15.9213 3.73448C15.7363 3.54932 15.6324 3.29832 15.6324 3.03675C15.6324 2.77497 15.7363 2.52396 15.9213 2.33903C16.1064 2.15388 16.3574 2.04994 16.6192 2.04994Z" fill="#629FF4"/>
<path d="M20.2373 7.64156C20.2373 8.25229 20.4798 8.83783 20.9116 9.26965C21.3434 9.70145 21.9292 9.94394 22.5397 9.94394C23.1505 9.94394 23.736 9.70143 24.1678 9.26965C24.5996 8.83785 24.8423 8.25235 24.8423 7.64156C24.8423 7.031 24.5996 6.44528 24.1678 6.01346C23.736 5.58166 23.1505 5.33917 22.5397 5.33917C21.9292 5.33917 21.3434 5.58169 20.9116 6.01346C20.4798 6.44526 20.2373 7.031 20.2373 7.64156ZM23.5265 7.64156C23.5265 7.90334 23.4226 8.15435 23.2377 8.33928C23.0525 8.52443 22.8015 8.62837 22.5397 8.62837C22.2782 8.62837 22.0272 8.52444 21.842 8.33928C21.6571 8.15435 21.5531 7.90335 21.5531 7.64156C21.5531 7.38 21.6571 7.12899 21.842 6.94383C22.0271 6.75891 22.2782 6.65474 22.5397 6.65474C22.8015 6.65474 23.0525 6.7589 23.2377 6.94383C23.4226 7.12899 23.5265 7.37999 23.5265 7.64156Z" fill="#629FF4"/>
<path d="M16.228 9.65091C16.3682 9.75507 16.5444 9.79889 16.7172 9.77297C16.89 9.74704 17.0453 9.65343 17.149 9.51278L22.7406 1.94762V1.94785C22.9567 1.65531 22.895 1.24302 22.6025 1.02687C22.3099 0.81051 21.8976 0.872458 21.6815 1.16499L16.0899 8.73016V8.72993C15.9857 8.87034 15.9419 9.04632 15.9678 9.21909C15.9938 9.39185 16.0874 9.54741 16.228 9.65089L16.228 9.65091Z" fill="#629FF4"/>
<path d="M6.09375 6.32593C5.15974 6.32593 0.502167 6.42137 0.502167 8.29957C0.502167 10.1778 5.15974 10.2732 6.09375 10.2732C7.02777 10.2732 11.6853 10.1778 11.6853 8.29957C11.6856 6.42137 7.028 6.32593 6.09375 6.32593ZM6.09375 8.95735C3.89668 8.95735 2.47551 8.57901 1.96251 8.29957C2.47576 8.01988 3.89668 7.64155 6.09375 7.64155C8.29082 7.64155 9.71199 8.01989 10.225 8.29933C9.71197 8.57901 8.29106 8.95735 6.09375 8.95735Z" fill="#629FF4"/>
<path d="M11.0276 9.77957C10.7018 9.77522 10.4219 10.0104 10.3698 10.3321C10.0802 10.6083 8.57717 11.0952 6.09376 11.0952C3.61059 11.0952 2.09743 10.6019 1.81797 10.3321C1.78883 9.96886 1.47083 9.69788 1.10739 9.72678C0.744187 9.75592 0.473214 10.0739 0.502112 10.4374C0.502112 12.3156 5.15968 12.411 6.0937 12.411C7.02772 12.411 11.6853 12.3156 11.6853 10.4374H11.6855C11.6855 10.2628 11.6162 10.0955 11.4928 9.97207C11.3694 9.84886 11.2021 9.77957 11.0275 9.77957H11.0276Z" fill="#629FF4"/>
<path d="M11.0276 12.082C10.7018 12.0779 10.4219 12.3128 10.3698 12.6345C10.0802 12.9107 8.57717 13.3976 6.09376 13.3976C3.61059 13.3976 2.09743 12.9043 1.81797 12.6345C1.78883 12.2713 1.47083 12.0003 1.10739 12.0292C0.744187 12.0584 0.473214 12.3764 0.502112 12.7398C0.502112 14.618 5.15968 14.7134 6.0937 14.7134C7.02772 14.7134 11.6853 14.618 11.6853 12.7398H11.6855C11.6855 12.5654 11.6162 12.3979 11.4928 12.2747C11.3694 12.1513 11.2021 12.082 11.0275 12.082H11.0276Z" fill="#629FF4"/>
<path d="M11.0276 14.3845C10.7018 14.3803 10.4219 14.6153 10.3698 14.937C10.0802 15.2132 8.57717 15.7001 6.09376 15.7001C3.61059 15.7001 2.09743 15.2068 1.81797 14.937C1.78883 14.5738 1.47083 14.3028 1.10739 14.3319C0.744187 14.3608 0.473214 14.6791 0.502112 15.0423C0.502112 16.9205 5.15968 17.0159 6.0937 17.0159C7.02772 17.0159 11.6853 16.9205 11.6853 15.0423H11.6855C11.6855 14.8679 11.6162 14.7004 11.4928 14.5772C11.3694 14.4538 11.2021 14.3845 11.0275 14.3845H11.0276Z" fill="#629FF4"/>
<path d="M11.0276 16.6869C10.7018 16.6828 10.4219 16.9177 10.3698 17.2396C10.0802 17.5159 8.57717 18.0027 6.09376 18.0027C3.61059 18.0027 2.09743 17.5092 1.81797 17.2396C1.78883 16.8762 1.47083 16.6052 1.10739 16.6343C0.744187 16.6635 0.473214 16.9815 0.502112 17.3447C0.502112 19.2229 5.15968 19.3183 6.0937 19.3183C7.02772 19.3183 11.6853 19.2229 11.6853 17.3447H11.6855C11.6855 17.1703 11.6162 17.0031 11.4928 16.8796C11.3694 16.7562 11.2021 16.6869 11.0275 16.6869H11.0276Z" fill="#629FF4"/>
<path d="M11.0276 18.9893C10.7018 18.9852 10.4219 19.2204 10.3698 19.5421C10.0802 19.8183 8.57717 20.3051 6.09376 20.3051C3.61059 20.3051 2.09743 19.8116 1.81797 19.5421C1.78883 19.1786 1.47083 18.9076 1.10739 18.9368C0.744187 18.9659 0.473214 19.2839 0.502112 19.6474C0.502112 21.5256 5.15968 21.621 6.0937 21.621C7.02772 21.621 11.6853 21.5256 11.6853 19.6474H11.6855C11.6855 19.4728 11.6162 19.3055 11.4928 19.1821C11.3694 19.0586 11.2021 18.9893 11.0275 18.9893L11.0276 18.9893Z" fill="#629FF4"/>
<path d="M19.9084 16.5224C20.8424 16.5224 25.5 16.427 25.5 14.5488C25.5 12.6706 20.8424 12.5751 19.9084 12.5751C18.9744 12.5751 14.3168 12.6706 14.3168 14.5488C14.3166 16.4271 18.9742 16.5224 19.9084 16.5224ZM19.9084 13.891C22.1055 13.891 23.5267 14.2693 24.0397 14.5488C23.5264 14.8285 22.1055 15.2068 19.9084 15.2068C17.7114 15.2068 16.2902 14.8284 15.7772 14.549C16.2902 14.2693 17.7111 13.8912 19.9084 13.8912V13.891Z" fill="#629FF4"/>
<path d="M24.8422 16.0291C24.5162 16.0249 24.2365 16.2599 24.1842 16.5815C23.8947 16.8578 22.3916 17.3446 19.9082 17.3446C17.425 17.3446 15.9119 16.8514 15.6324 16.5815C15.6033 16.2183 15.2853 15.9474 14.9218 15.9765C14.5586 16.0054 14.2876 16.3237 14.3165 16.6869C14.3165 18.5651 18.9741 18.6605 19.9081 18.6605C20.8421 18.6605 25.4997 18.5651 25.4997 16.6869H25.4999C25.4999 16.5125 25.4306 16.345 25.3072 16.2218C25.1838 16.0984 25.0165 16.0291 24.8421 16.0291H24.8422Z" fill="#629FF4"/>
<path d="M24.8422 18.3315C24.5162 18.3274 24.2365 18.5623 24.1842 18.8842C23.8947 19.1605 22.3916 19.6473 19.9082 19.6473C17.425 19.6473 15.9119 19.1538 15.6324 18.8842C15.6033 18.5208 15.2853 18.2498 14.9218 18.2789C14.5586 18.3081 14.2876 18.6261 14.3165 18.9893C14.3165 20.8675 18.9741 20.9629 19.9081 20.9629C20.8421 20.9629 25.4997 20.8675 25.4997 18.9893H25.4999C25.4999 18.8149 25.4306 18.6477 25.3072 18.5242C25.1838 18.4008 25.0165 18.3315 24.8421 18.3315H24.8422Z" fill="#629FF4"/>
<path d="M24.8422 20.6339C24.5162 20.6298 24.2365 20.865 24.1842 21.1866C23.8947 21.4629 22.3916 21.9497 19.9082 21.9497C17.425 21.9497 15.9119 21.4562 15.6324 21.1866C15.6033 20.8232 15.2853 20.5522 14.9218 20.5814C14.5586 20.6105 14.2876 20.9285 14.3165 21.292C14.3165 23.1701 18.9741 23.2656 19.9081 23.2656C20.8421 23.2656 25.4997 23.1701 25.4997 21.292H25.4999C25.4999 21.1174 25.4306 20.9501 25.3072 20.8267C25.1838 20.7032 25.0165 20.6339 24.8421 20.6339L24.8422 20.6339Z" fill="#629FF4"/>
</svg>
