<svg width="24" height="24" viewBox="0 0 24 24" fill="none" xmlns="http://www.w3.org/2000/svg">
<g id="Log Out">
<path id="Vector" d="M12.5654 1.9502C12.7715 1.95036 12.9374 2.11976 12.9375 2.32715C12.9375 2.53466 12.7716 2.70491 12.5654 2.70508H5.09473C4.8754 2.70508 4.69531 2.88726 4.69531 3.11328V21.1865C4.69531 21.4127 4.87522 21.5957 5.09473 21.5957H12.6152V21.6006C12.7977 21.6255 12.9374 21.7823 12.9375 21.9727C12.9375 22.1802 12.7716 22.3504 12.5654 22.3506H5.09473C4.46272 22.3506 3.9502 21.8271 3.9502 21.1865V3.11328C3.9502 2.47274 4.46272 1.9502 5.09473 1.9502H12.5654ZM15.291 7.34375C15.4359 7.24659 15.6333 7.26318 15.7607 7.39258L20.1855 11.8838L20.2002 11.8984V11.9014C20.2602 11.9703 20.2941 12.058 20.2939 12.1504L20.2871 12.2246C20.2776 12.2728 20.2583 12.3185 20.2314 12.3594L20.1855 12.417L15.7598 16.9082C15.6872 16.982 15.5918 17.0195 15.4961 17.0195C15.4243 17.0195 15.3529 16.9985 15.291 16.957L15.2324 16.9082C15.0876 16.7607 15.0874 16.5223 15.2324 16.375L19.0234 12.5273H8.6123C8.40612 12.5273 8.24038 12.3578 8.24023 12.1504C8.24023 11.9428 8.40603 11.7725 8.6123 11.7725H19.0234L15.2324 7.92578C15.0873 7.77845 15.087 7.539 15.2324 7.3916L15.291 7.34375Z" fill="#5D6679" stroke="#5D6679" stroke-width="0.1"/>
</g>
</svg>
